<svg height="590" width="720" xmlns="http://www.w3.org/2000/svg">
<rect height="590" fill="#555" width="720"></rect>
<text fill="#7f7" font-family="Courier New" font-size="12" xml:space="preserve">
<tspan x="10" y="26">3 megabytes installed</tspan>
<tspan x="10" y="42"></tspan>
<tspan x="10" y="58">node_modules</tspan>
<tspan x="10" y="74">├── UNMET PEER DEPENDENCY grunt@~0.4.0</tspan>
<tspan x="10" y="90">└─┬ grunt-contrib-livereload@0.1.2 </tspan>
<tspan x="10" y="106">  └─┬ tiny-lr@0.0.9 </tspan>
<tspan x="10" y="122">    ├─┬ body-parser@1.17.1 </tspan>
<tspan x="10" y="138">    │ ├── bytes@2.4.0 </tspan>
<tspan x="10" y="154">    │ ├── content-type@1.0.2 </tspan>
<tspan x="10" y="170">    │ ├─┬ debug@2.6.1 </tspan>
<tspan x="10" y="186">    │ │ └── ms@0.7.2 </tspan>
<tspan x="10" y="202">    │ ├── depd@1.1.0 </tspan>
<tspan x="10" y="218">    │ ├─┬ http-errors@1.6.1 </tspan>
<tspan x="10" y="234">    │ │ ├── inherits@2.0.3 </tspan>
<tspan x="10" y="250">    │ │ ├── setprototypeof@1.0.3 </tspan>
<tspan x="10" y="266">    │ │ └── statuses@1.3.1 </tspan>
<tspan x="10" y="282">    │ ├── iconv-lite@0.4.15 </tspan>
<tspan x="10" y="298">    │ ├─┬ on-finished@2.3.0 </tspan>
<tspan x="10" y="314">    │ │ └── ee-first@1.1.1 </tspan>
<tspan x="10" y="330">    │ ├── qs@6.4.0 </tspan>
<tspan x="10" y="346">    │ ├─┬ raw-body@2.2.0 </tspan>
<tspan x="10" y="362">    │ │ └── unpipe@1.0.0 </tspan>
<tspan x="10" y="378">    │ └─┬ type-is@1.6.15 </tspan>
<tspan x="10" y="394">    │   ├── media-typer@0.3.0 </tspan>
<tspan x="10" y="410">    │   └─┬ mime-types@2.1.15 </tspan>
<tspan x="10" y="426">    │     └── mime-db@1.27.0 </tspan>
<tspan x="10" y="442">    ├── debug@0.8.1 </tspan>
<tspan x="10" y="458">    ├─┬ faye-websocket@0.7.3 </tspan>
<tspan x="10" y="474">    │ └─┬ websocket-driver@0.6.5 </tspan>
<tspan x="10" y="490">    │   └── websocket-extensions@0.1.1 </tspan>
<tspan x="10" y="506">    ├─┬ noptify@0.0.3 </tspan>
<tspan x="10" y="522">    │ └─┬ nopt@2.0.0 </tspan>
<tspan x="10" y="538">    │   └── abbrev@1.1.0 </tspan>
<tspan x="10" y="554">    ├── parseurl@1.3.1 </tspan>
<tspan x="10" y="570">    └── qs@0.6.6</tspan>
</text>
</svg>
